<svg width="61" height="60" viewBox="0 0 61 60" fill="none" xmlns="http://www.w3.org/2000/svg">
<path d="M21.4016 1.97285C15.4067 4.05255 10.2367 7.99988 6.65096 13.235C3.06525 18.4702 1.25284 24.7173 1.47995 31.0586C1.70707 37.4 3.96173 43.5014 7.91277 48.4666C11.8638 53.4319 17.303 56.9992 23.4313 58.6447C28.3997 59.9267 33.6051 59.983 38.6001 58.8088C43.125 57.7924 47.3084 55.6183 50.7407 52.4994C54.3129 49.1542 56.9059 44.8985 58.2407 40.19C59.6916 35.0697 59.9497 29.685 58.9954 24.4494H31.0954V36.0229H47.2532C46.9303 37.8687 46.2383 39.6305 45.2186 41.2027C44.1989 42.7749 42.8725 44.1252 41.3188 45.1729C39.3458 46.478 37.1216 47.3562 34.7891 47.751C32.4498 48.186 30.0503 48.186 27.711 47.751C25.34 47.2608 23.0971 46.2822 21.1251 44.8775C17.957 42.635 15.5782 39.4491 14.3282 35.7744C13.057 32.0309 13.057 27.9726 14.3282 24.2291C15.218 21.6051 16.689 19.216 18.6313 17.24C20.8541 14.9373 23.6682 13.2913 26.7649 12.4826C29.8615 11.6739 33.1211 11.7338 36.186 12.6557C38.5802 13.3906 40.7697 14.6747 42.5798 16.4057C44.4016 14.5932 46.2204 12.776 48.036 10.9541C48.9735 9.97441 49.9954 9.0416 50.9188 8.03847C48.1558 5.46727 44.9126 3.46655 41.3751 2.15097C34.9331 -0.188136 27.8843 -0.250998 21.4016 1.97285Z" fill="white"/>
<path d="M21.4015 1.97317C27.8837 -0.252184 34.9324 -0.190978 41.375 2.14661C44.9131 3.47113 48.1549 5.48148 50.914 8.06224C49.9765 9.06536 48.9874 10.0029 48.0312 10.9779C46.2125 12.7935 44.3953 14.6029 42.5796 16.406C40.7695 14.6751 38.5801 13.3909 36.1859 12.656C33.122 11.7309 29.8625 11.6675 26.765 12.4729C23.6675 13.2783 20.8517 14.9213 18.6265 17.2216C16.6842 19.1976 15.2132 21.5867 14.3234 24.2107L4.6062 16.6872C8.08436 9.78987 14.1066 4.51391 21.4015 1.97317Z" fill="#E33629"/>
<path d="M2.02801 24.1406C2.5503 21.5522 3.41741 19.0454 4.60614 16.6875L14.3233 24.2297C13.0521 27.9732 13.0521 32.0315 14.3233 35.775C11.0858 38.275 7.84676 40.7875 4.60614 43.3125C1.63028 37.389 0.722698 30.6399 2.02801 24.1406Z" fill="#F8BD00"/>
<path d="M31.0953 24.4453H58.9953C59.9497 29.6809 59.6915 35.0656 58.2407 40.1859C56.9058 44.8944 54.3129 49.1501 50.7407 52.4953C47.6047 50.0484 44.4547 47.6203 41.3188 45.1734C42.8735 44.1247 44.2005 42.7729 45.2202 41.1991C46.24 39.6252 46.9314 37.8616 47.2532 36.0141H31.0953C31.0907 32.1609 31.0953 28.3031 31.0953 24.4453Z" fill="#587DBD"/>
<path d="M4.60156 43.3129C7.84219 40.8129 11.0812 38.3004 14.3187 35.7754C15.5713 39.4513 17.9535 42.6374 21.125 44.8785C23.1032 46.2766 25.3509 47.2473 27.725 47.7285C30.0643 48.1635 32.4638 48.1635 34.8031 47.7285C37.1356 47.3337 39.3598 46.4555 41.3328 45.1504C44.4688 47.5973 47.6187 50.0254 50.7547 52.4723C47.3229 55.5929 43.1395 57.7686 38.6141 58.7863C33.6191 59.9606 28.4137 59.9043 23.4453 58.6223C19.5158 57.5731 15.8454 55.7235 12.6641 53.1895C9.29685 50.5161 6.54667 47.1471 4.60156 43.3129Z" fill="#319F43"/>
</svg>
