<svg width="61" height="60" viewBox="0 0 61 60" fill="none" xmlns="http://www.w3.org/2000/svg">
<path d="M54.875 1.40647H6.125C5.0189 1.39521 3.9535 1.82321 3.16259 2.59654C2.37168 3.36988 1.91985 4.42539 1.90625 5.53147V54.4783C1.92231 55.5828 2.37522 56.6359 3.16586 57.4072C3.95651 58.1785 5.0205 58.6052 6.125 58.594H54.875C55.9812 58.6027 57.0458 58.1733 57.8364 57.3995C58.6269 56.6257 59.0789 55.5704 59.0938 54.4643V5.5174C59.074 4.41457 58.6198 3.36409 57.8298 2.59431C57.0399 1.82452 55.978 1.39764 54.875 1.40647Z" fill="#0076B2"/>
<path d="M10.3718 22.8418H18.8608V50.1559H10.3718V22.8418ZM14.6187 9.24805C15.5923 9.24805 16.5441 9.53683 17.3536 10.0779C18.1631 10.6189 18.7939 11.3879 19.1663 12.2875C19.5387 13.1871 19.6359 14.177 19.4456 15.1319C19.2553 16.0867 18.7861 16.9637 18.0973 17.6519C17.4085 18.34 16.531 18.8084 15.576 18.9978C14.6209 19.1872 13.6312 19.089 12.7319 18.7158C11.8326 18.3426 11.0642 17.711 10.524 16.901C9.98373 16.0909 9.69585 15.1389 9.69678 14.1652C9.69802 12.8607 10.2171 11.61 11.14 10.688C12.0629 9.76596 13.3141 9.24805 14.6187 9.24805ZM24.1858 22.8418H32.3233V26.5918H32.4358C33.5702 24.4449 36.3358 22.1809 40.4655 22.1809C49.0624 22.1621 50.6562 27.8199 50.6562 35.1559V50.1559H42.1671V36.8668C42.1671 33.7027 42.1108 29.6293 37.7562 29.6293C33.4015 29.6293 32.6608 33.0793 32.6608 36.6605V50.1559H24.1858V22.8418Z" fill="white"/>
</svg>
